<svg viewBox="0 0 500 500" width="50" height="50" class="icon-svg" xmlns="http://www.w3.org/2000/svg">
 <g>
  <path fill="#000" stroke="#000" stroke-width="1.5" class="unch-svg" id="check-unch-svg" d="m402,456c0,-5 -2,-9 -5,-13c-4,-3 -8,-5 -13,-5c-5,0 -9,2 -13,5c-3,4 -5,8 -5,13c0,5 2,9 5,13c4,4 8,5 13,5c5,0 9,-1 13,-5c3,-4 5,-8 5,-13zm37,-218c0,-36 -16,-54 -48,-54c-5,0 -10,0 -16,1c-3,-5 -8,-10 -15,-13c-7,-4 -14,-5 -21,-5c-7,0 -13,1 -20,5c-9,-10 -20,-15 -34,-15c-4,0 -10,1 -15,3c-6,1 -11,4 -14,7l0,-95c0,-10 -4,-18 -11,-26c-7,-7 -16,-10 -26,-10c-9,0 -18,3 -25,11c-7,7 -11,16 -11,25l0,165c-4,0 -9,-2 -14,-5c-5,-2 -11,-6 -16,-9c-5,-3 -11,-7 -19,-9c-8,-3 -16,-5 -24,-5c-13,0 -22,5 -28,13c-6,8 -9,19 -9,33c0,5 13,13 40,26c8,4 14,8 18,10c13,8 26,19 42,32c15,14 25,23 30,29c11,13 16,27 16,40l0,9l183,0l0,-9c0,-14 3,-29 9,-48c7,-18 13,-36 19,-55c6,-19 9,-36 9,-51zm36,-2c0,26 -6,56 -19,92c-12,32 -17,53 -17,64l0,82c0,11 -4,19 -11,26c-7,7 -16,11 -26,11l-183,0c-10,0 -18,-4 -25,-11c-8,-7 -11,-15 -11,-26l0,-82c0,-2 -1,-4 -1,-6c-1,-2 -3,-4 -4,-7c-2,-2 -4,-4 -6,-6c-1,-2 -3,-4 -6,-7c-3,-3 -5,-5 -6,-6c-2,-1 -4,-3 -6,-5c-3,-3 -5,-4 -5,-4c-14,-13 -27,-22 -37,-29c-4,-2 -10,-5 -18,-9c-8,-4 -14,-8 -20,-11c-6,-3 -12,-7 -18,-11c-6,-5 -11,-10 -14,-16c-4,-6 -5,-13 -5,-20c0,-24 6,-43 19,-59c12,-16 30,-23 54,-23c13,0 25,2 36,6l0,-107c0,-20 8,-37 22,-51c14,-15 32,-22 51,-22c20,0 37,7 52,22c14,14 22,31 22,51l0,48c11,1 23,5 34,11c4,-1 8,-1 12,-1c19,0 36,6 51,17c26,0 47,8 62,25c16,16 23,38 23,64z" id="svg_3"/>
  <path fill="#ff0000" stroke-width="0" stroke-opacity="null" class="ch-svg" id="check-ch-svg" d="m79.381068,174.554653l44.377726,-54.390905l121.572066,148.931138l202.656712,-248.218563l44.393412,54.352466l-247.050124,302.647907" stroke="#000"/>
 </g>
</svg>