<svg viewBox="0 0 500 500" width="50" height="50" class="icon-svg" xmlns="http://www.w3.org/2000/svg">
 <g>
  <path fill="#000" stroke="#000" stroke-width="1.5" class="unch-svg" id="get-unch-svg" d="m185,439c0,10 -3,18 -11,26c-7,7 -16,10 -25,10c-10,0 -19,-3 -26,-10c-7,-8 -11,-16 -11,-26c0,-10 4,-19 11,-26c7,-7 16,-11 26,-11c9,0 18,4 25,11c8,7 11,16 11,26zm256,0c0,10 -3,18 -11,26c-7,7 -16,10 -25,10c-10,0 -19,-3 -26,-10c-7,-8 -11,-16 -11,-26c0,-10 4,-19 11,-26c7,-7 16,-11 26,-11c9,0 18,4 25,11c8,7 11,16 11,26zm37,-311l0,146c0,5 -2,9 -5,12c-3,4 -7,6 -12,7l-298,34c3,12 4,19 4,20c0,3 -2,10 -7,19l263,0c5,0 9,2 13,5c3,4 5,8 5,13c0,5 -2,9 -5,13c-4,3 -8,5 -13,5l-293,0c-5,0 -9,-2 -13,-5c-3,-4 -5,-8 -5,-13c0,-2 1,-5 2,-9c2,-4 3,-7 5,-10c1,-3 3,-7 6,-12c3,-4 4,-7 4,-8l-50,-235l-58,0c-5,0 -10,-2 -13,-6c-4,-3 -6,-8 -6,-13c0,-5 2,-9 6,-12c3,-4 8,-6 13,-6l73,0c3,0 5,1 8,2c2,1 4,3 5,4c2,2 3,4 4,7c1,3 2,6 2,8c1,2 1,5 2,8c1,4 1,6 1,8l343,0c5,0 10,2 13,5c4,4 6,8 6,13z"/>
  <path fill="#ff0000" stroke-width="0" stroke-opacity="null" class="ch-svg" id="get-ch-svg" d="m79.381068,174.554653l44.377726,-54.390905l121.572066,148.931138l202.656712,-248.218563l44.393412,54.352466l-247.050124,302.647907" stroke="#000"/>
 </g>
</svg>