<svg viewBox="0 0 500 500" width="50" height="50" class="icon-svg" xmlns="http://www.w3.org/2000/svg">
 <g>
  <path fill="#000" stroke="#000" stroke-width="1.5" class="unch-svg" id="idea-unch-svg" d="m311 357l0 64c0 5-2 9-6 12-3 4-7 6-12 6l-74 0c-5 0-9-2-12-6-4-3-6-7-6-12l0-64c0-5 2-10 6-13 3-4 7-6 12-6l74 0c5 0 9 2 12 6 4 3 6 8 6 13z m8-302l-8 219c0 5-2 10-5 13-4 4-8 6-13 6l-74 0c-5 0-9-2-13-6-3-3-5-8-5-13l-8-219c-1-5 1-9 5-13 3-4 7-5 12-5l92 0c5 0 9 1 12 5 4 4 6 8 5 13z"/>
  <path fill="#ff0000" stroke-width="0" stroke-opacity="null" class="ch-svg" id="idea-ch-svg" d="m79.381068,174.554653l44.377726,-54.390905l121.572066,148.931138l202.656712,-248.218563l44.393412,54.352466l-247.050124,302.647907" stroke="#000"/>
 </g>
</svg>