<?xml version="1.0" encoding="UTF-8"?>
<svg enable-background="new 0 0 512 512" version="1.1" viewBox="0 0 512 512" xml:space="preserve" xmlns="http://www.w3.org/2000/svg">
		<path d="m271.21 64.975v-64.975h-30.417v64.975c-93.563 7.381-168.44 82.254-175.82 175.82h-64.975v30.417h64.974c7.381 93.562 82.254 168.44 175.82 175.82v64.976h30.417v-64.975c93.562-7.381 168.44-82.254 175.82-175.82h64.974v-30.417h-64.973c-7.38-93.563-82.253-168.44-175.82-175.82zm-30.419 351.51c-76.777-7.218-138.06-68.503-145.28-145.28h40.477c6.875 54.564 50.238 97.927 104.8 104.8v40.477zm1e-3 -71.225c-37.765-6.414-67.641-36.29-74.055-74.055h74.055v74.055zm0-104.47h-74.055c6.414-37.765 36.29-67.641 74.055-74.055v74.055zm0-104.8c-54.564 6.875-97.927 50.238-104.8 104.8h-40.478c7.219-76.777 68.503-138.06 145.28-145.28v40.477zm30.418 30.749c37.765 6.414 67.641 36.29 74.055 74.055h-74.055v-74.055zm0 104.47h74.055c-6.414 37.765-36.29 67.641-74.055 74.055v-74.055zm0 145.28v-40.477c54.564-6.875 97.927-50.238 104.8-104.8h40.477c-7.219 76.777-68.502 138.06-145.28 145.28zm104.8-175.7c-6.875-54.564-50.238-97.927-104.8-104.8v-40.478c76.777 7.219 138.06 68.503 145.28 145.28h-40.477z"/>
</svg>
