<svg viewBox="0 0 500 500" width="50" height="50" class="icon-svg" xmlns="http://www.w3.org/2000/svg">
 <g>
  <path class="unch-svg" id="todo-unch-svg" d="m375,73l-238,0c-12,0 -23,5 -32,14c-9,9 -14,19 -14,32l0,238c0,12 5,23 14,32c9,9 20,13 32,13l238,0c12,0 23,-4 32,-13c9,-9 14,-20 14,-32l0,-238c0,-13 -5,-23 -14,-32c-9,-9 -20,-14 -32,-14zm82,46l0,238c0,22 -8,42 -24,58c-16,16 -35,24 -58,24l-238,0c-23,0 -42,-8 -58,-24c-16,-16 -24,-36 -24,-58l0,-238c0,-23 8,-42 24,-58c16,-16 35,-24 58,-24l238,0c23,0 42,8 58,24c16,16 24,35 24,58z" stroke-width="1.5" stroke="#000" fill="#000"/>
  <path stroke="#000" class="ch-svg" id="todo-ch-svg" d="m79.381068,174.554653l44.377726,-54.390905l121.572066,148.931138l202.656712,-248.218563l44.393412,54.352466l-247.050124,302.647907" stroke-opacity="null" stroke-width="0" fill="#ff0000"/>
 </g>
</svg>